# xmcd
#
# Track frame offsets:
#	150
#	13981
#	28581
#	40455
#	54339
#	67617
#	84913
#	95650
#	113446
#	125354
#	144877
#	159238
#	178648
#
# Disc length: 2535 seconds
#
# Revision: 0
# Processed by: cddbd v1.4PL0 Copyright (c) Steve Scherf et al.
# Submitted via: dBpowerAMP V4.0
#
DISCID=9709e50d
DTITLE=Jason Walker - Stranger To Someone
DYEAR=2001
DGENRE=Altern. Country
TTITLE0=Stranger To Someone
TTITLE1=The Lucky One
TTITLE2=Apartment #9
TTITLE3=Streets Of Baltimore
TTITLE4=I'm Crying Again
TTITLE5=Other Side Of The Bar
TTITLE6=How Much I've Lied
TTITLE7=Tears
TTITLE8=Up Shit Creek Again
TTITLE9=I Wish I Were Blind
TTITLE10=Good Time Charlie's Got The Blues
TTITLE11=I'm Still Dreaming (Now I'm Yours)
TTITLE12=Welcome To My World
EXTD=
EXTT0=
EXTT1=
EXTT2=
EXTT3=
EXTT4=
EXTT5=
EXTT6=
EXTT7=
EXTT8=
EXTT9=
EXTT10=
EXTT11=
EXTT12=
PLAYORDER=
